# xmcd
# 
# Track frame offsets:
#     150
#     16753
#     34361
#     49801
#     62784
#     79071
#     97631
#     113333
#     129711
#     149614
#     167880
#     183873
# 
# Disc length: 2736
# 
# Revision: 3
# Processed by: cddbd v1.5.2PL0 Copyright (c) Steve Scherf et al.
# Submitted via: fre:ac v1.0.31
# 
DISCID=980aae0c
DTITLE=Garth Brooks - The Ultimate Collection - Disc 6 (Anthems)
DYEAR=2016
DGENRE=Country
TTITLE0=Garth Brooks - Dance, The
TTITLE1=Garth Brooks - Standing Outside The Fire
TTITLE2=Garth Brooks - Unanswered Prayers
TTITLE3=Garth Brooks - Thicker Than Blood
TTITLE4=Garth Brooks - How You Ever Gonna Know
TTITLE5=Garth Brooks - Change, The
TTITLE6=Garth Brooks - Belleau Wood
TTITLE7=Garth Brooks - People Loving People
TTITLE8=Garth Brooks - River, The
TTITLE9=Garth Brooks - Mom
TTITLE10=Garth Brooks - Last Night I Had the Strangest Dream
TTITLE11=Garth Brooks - When You Come Back To Me Again
EXTD=
EXTT0=
EXTT1=
EXTT2=
EXTT3=
EXTT4=
EXTT5=
EXTT6=
EXTT7=
EXTT8=
EXTT9=
EXTT10=
EXTT11=
PLAYORDER=
